<svg xmlns="http://www.w3.org/2000/svg" id="image" width="163.839" height="163.839" fill-rule="evenodd" clip-rule="evenodd" image-rendering="optimizeQuality" shape-rendering="geometricPrecision" text-rendering="geometricPrecision" viewBox="0 0 4335 4335"><path fill="#2b1330" d="M1031 2125c-17,0 -34,-9 -43,-24 -11,-17 -50,-66 -87,-70 -6,-1 -23,-3 -47,22 -20,19 -52,19 -72,0 -25,-25 -43,-23 -48,-22 -37,4 -76,53 -87,70 -15,24 -46,31 -70,16 -24,-15 -31,-46 -16,-69 7,-11 68,-107 161,-118 25,-2 60,0 96,23 36,-23 71,-25 96,-23 92,11 154,107 161,118 15,23 8,55 -16,70 -9,4 -18,7 -28,7zm-86 1059l91 -1 1255 0c-38,-75 -74,-146 -109,-216 -240,-480 -399,-797 -544,-797 0,0 0,0 -1,0 -160,1 -384,387 -692,1014zm1460 -1l1013 0c-43,-85 -83,-169 -121,-250 -166,-350 -310,-652 -470,-654 -1,0 -1,0 -2,0 -137,0 -321,220 -545,655 40,80 81,162 125,249zm1085 102l-1104 0c-7,1 -15,1 -22,0l-1327 0 -171 2 -1 0c-170,25 -317,53 -437,85l0 366c0,28 -21,49 -48,51l0 0 -1 0 -1 0 0 0 -1 0c0,0 0,0 0,0l0 0 0 0 0 0 -1 0 0 0 0 0 0 0 0 0 0 0 -1 0c-3,0 -5,-1 -8,-1l0 0 -1 0 -2 -1c-243,-69 -361,-150 -362,-249l0 -2 0 -2559c0,-74 64,-138 197,-194 110,-47 266,-89 464,-124 403,-73 937,-113 1504,-113 568,0 1103,40 1505,113 198,35 354,77 464,124 133,57 197,120 197,194l0 2 0 2556 0 1 0 2c-2,98 -118,178 -353,246 -3,2 -7,3 -11,4 -4,1 -7,1 -10,1l0 0 0 0 0 0 -1 0 -1 0 0 0 -1 0 -1 0 0 0 -1 0 -1 0 0 0 -1 0 0 0 -1 -1 0 0 -1 0 0 0 -1 0 -1 0 0 0 -1 0 0 0 -1 -1 0 0 -1 0 -1 0 0 0 0 0 -1 -1 -1 0 0 0 -1 0 0 0 -1 -1 0 0 -1 0 0 0 -1 -1 0 0 -1 0 -1 0 0 -1 -1 0 -1 0 0 0 -1 -1 0 0c-11,-6 -20,-17 -24,-30 -1,-7 -2,-13 -1,-20l0 -359c-115,-32 -237,-63 -418,-88zm-68 -1203c-125,0 -227,-102 -227,-227 0,-125 102,-227 227,-227 125,0 227,102 227,227 0,125 -102,227 -227,227zm0 -352c-69,0 -125,56 -125,126 0,69 56,125 125,125 70,0 125,-56 125,-125 0,-70 -56,-126 -125,-126zm-2591 1459c202,-414 338,-664 451,-832 135,-199 245,-289 356,-289 0,0 1,0 1,0 195,0 340,267 585,754 237,-445 424,-646 601,-646 1,0 2,0 3,0 224,4 372,316 561,712 45,94 92,192 141,290 2,3 3,6 6,10 155,24 268,51 372,79l0 -2082c-2,-16 4,-31 16,-42l0 -1 0 0c8,-6 17,-11 27,-12 221,-65 281,-126 281,-153 0,-39 -121,-137 -578,-219 -397,-71 -925,-110 -1487,-110 -561,0 -1089,39 -1486,110 -457,82 -578,180 -578,219 0,27 60,89 286,154 9,2 17,7 23,14l0 0 1 1 0 0 0 0c8,9 13,21 13,34l2 2087c114,-29 249,-55 403,-78zm-506 -1972c-95,-29 -169,-60 -222,-94l0 2413c0,24 49,76 223,134l0 -327c-1,-7 -1,-13 0,-19l-1 -2107zm3907 -94c-53,34 -127,65 -223,95l0 2110c1,3 1,7 0,10l0 331c174,-57 223,-110 223,-134l0 -2412zm-2399 685l-720 0c-139,0 -253,-113 -253,-253 0,-129 98,-237 224,-251 6,-131 115,-236 248,-236 5,0 11,0 17,1 37,-97 131,-165 238,-165 140,0 253,113 253,253 0,3 0,7 0,10 64,31 108,94 115,166 80,44 132,129 132,222 -1,140 -114,253 -254,253zm-720 -405c-83,0 -151,68 -151,151 0,84 68,152 151,152l720 0c84,0 152,-68 152,-152 0,-63 -40,-120 -99,-142 -21,-7 -35,-28 -33,-51 0,-3 0,-6 0,-9 0,-49 -34,-91 -81,-102 -28,-6 -44,-33 -39,-60 3,-11 4,-22 4,-33 0,-84 -68,-152 -152,-152 -74,0 -138,56 -149,130 -3,14 -11,27 -23,35 -13,8 -28,11 -42,6 -13,-4 -27,-6 -40,-6 -81,0 -146,66 -146,146 0,10 1,19 3,30 3,16 -2,33 -13,44 -11,12 -27,18 -43,16 -6,-2 -13,-3 -19,-3zm1748 -8c-17,0 -34,-9 -43,-24 -11,-17 -50,-66 -87,-70 -6,-1 -23,-3 -47,22 -20,19 -52,19 -72,0 -25,-25 -43,-23 -48,-22 -37,4 -76,53 -87,70 -15,24 -46,31 -70,16 -24,-15 -31,-46 -16,-69 7,-11 68,-107 161,-118 25,-3 60,0 96,23 36,-23 71,-26 96,-23 92,11 154,107 161,118 15,23 8,55 -16,70 -10,4 -19,7 -28,7zm804 -264c-17,0 -34,-9 -43,-24 -11,-17 -50,-66 -87,-70 -6,-1 -23,-3 -48,22 -19,19 -51,19 -72,0 -24,-25 -42,-23 -47,-22 -37,4 -76,53 -87,70 -15,24 -47,31 -70,16 -24,-15 -32,-46 -16,-69 6,-11 68,-107 161,-118 25,-3 59,0 96,23 36,-23 71,-26 95,-23 93,11 155,107 162,118 14,23 8,55 -16,70 -10,4 -20,7 -28,7z"/><path fill="#35e5e5" d="M1075 2048c19,31 2,77 -44,77 -17,0 -34,-9 -43,-24 -11,-17 -50,-66 -87,-70 -6,-1 -23,-3 -47,22 -20,19 -52,19 -72,0 -25,-25 -43,-23 -48,-22 -37,4 -76,53 -87,70 -36,56 -122,3 -86,-53 34,-54 139,-169 257,-95 117,-74 225,42 257,95zm564 20c195,0 340,267 585,754 237,-447 424,-647 604,-646 224,4 372,316 561,712l147 300c155,24 268,51 372,79l0 -2082c-2,-30 15,-49 43,-55 221,-65 281,-126 281,-153 0,-39 -121,-137 -578,-219 -818,-146 -2155,-146 -2973,0 -457,82 -578,180 -578,219 0,27 60,89 286,154 22,6 37,26 37,49l2 2087c114,-29 249,-55 403,-78 202,-414 338,-664 451,-832 135,-200 245,-289 357,-289zm1783 14c-125,0 -227,-102 -227,-227 0,-125 102,-227 227,-227 125,0 227,102 227,227 0,125 -102,227 -227,227zm-1335 -527c-1,140 -114,253 -254,253l-720 0c-139,0 -253,-113 -253,-253 0,-129 98,-237 224,-251 6,-131 115,-236 248,-236 5,0 11,0 17,1 37,-97 131,-165 238,-165 140,0 253,113 253,253l0 10c64,31 108,94 115,166 80,44 132,129 132,222zm774 -160c-17,0 -34,-9 -43,-24 -11,-17 -50,-66 -87,-70 -6,-1 -23,-3 -47,22 -20,19 -52,19 -72,0 -25,-25 -43,-23 -48,-22 -37,4 -76,53 -87,70 -37,57 -121,2 -86,-53 34,-54 139,-169 257,-95 117,-74 225,42 257,95 20,31 1,77 -44,77zm804 -264c-17,0 -34,-9 -43,-24 -11,-17 -50,-66 -87,-70 -6,-1 -23,-3 -48,22 -19,19 -51,19 -72,0 -24,-25 -42,-23 -47,-22 -37,4 -76,53 -87,70 -37,57 -122,3 -86,-53 33,-54 139,-169 257,-95 117,-74 225,42 257,95 19,31 1,77 -44,77z"/><path fill="#0cae61" d="M2825 2279c-137 0-321 220-545 655 40 80 81 162 125 249l1013 0c-43-85-83-169-121-250-166-349-311-654-472-654zM2182 2967c-241-481-399-797-545-797-160 1-384 387-692 1014l91-1 1255 0c-38-75-74-146-109-216z"/><path fill="#2bc3d6" d="M326 3324l-1-2107c-95-29-169-60-222-94l0 2413c0 24 49 76 223 134l0-327c-1-7-1-13 0-19zM1113 1706l720 0c84 0 152-68 152-152 0-63-40-120-99-142-30-11-33-35-33-60 0-49-34-91-81-102-28-6-44-33-39-60 21-92-49-185-148-185-74 0-138 56-149 130-6 31-37 50-65 41-98-30-205 56-183 170 8 43-35 66-56 60-6-2-13-3-19-3-83 0-151 68-151 151 0 84 68 152 151 152z"/><path fill="#fabe2c" d="M3297 1856c0,69 56,125 125,125 70,0 125,-56 125,-125 0,-70 -56,-126 -125,-126 -69,0 -125,56 -125,126z"/><path fill="#2bc3d6" d="M4009 1218l0 2110c1,3 1,7 0,10l0 331c174,-57 223,-110 223,-134l0 -2412c-53,34 -127,65 -223,95z"/></svg>