<svg xmlns="http://www.w3.org/2000/svg" width="16" height="16" id="pen">
  <path d="m10.496 2.959 2.594 2.594-.904.502L10.02 3.89zM9.37 4.656v.006l1.979 1.979-4.096 7.363-4.506-.01 2.352-2.351a1.504 1.504 0 0 0 1.7-.29 1.507 1.507 0 0 0 0-2.12 1.507 1.507 0 0 0-2.12 0 1.506 1.506 0 0 0-.287 1.703l-2.389 2.388.006-4.568zM5.74 9.791c.126 0 .253.049.353.148.2.2.2.508 0 .707-.2.2-.508.2-.707 0-.2-.199-.2-.507 0-.707.1-.1.226-.148.353-.148z" color="#000" font-family="sans-serif" font-weight="400" overflow="visible" style="text-indent:0;text-align:start;line-height:normal;text-transform:none;block-progression:tb"></path>
</svg>
