<svg xmlns="http://www.w3.org/2000/svg" id="skull-move" x="0" y="0" version="1.1" viewBox="0 0 512 512" xml:space="preserve"><g id="_x30_2"><g id="outline_00000116957457885301367900000003663529136101867441_"><path d="M319.36 240.07c-1.43 0-2.81-.77-3.53-2.12a4 4 0 0 1 1.65-5.41c.21-.11 5.17-2.74 11.81-5.07 2.6-.91 4.1-2.26 4.46-2.91-.22-.25-.86-.84-2.46-1.53-6.31-2.71-14.22 4.6-14.3 4.67a4.006 4.006 0 0 1-5.65-.12 3.984 3.984 0 0 1 .1-5.64c.47-.46 11.69-11.11 23-6.27 6.25 2.68 7.46 6.4 7.37 9.06-.17 5.1-5.21 8.66-9.87 10.29-6.03 2.11-10.64 4.55-10.69 4.58-.61.32-1.25.47-1.89.47" style="fill:#2d2d2d"/><path d="M323.53 251.64c-2.1 0-3.86-1.64-3.99-3.77a3.997 3.997 0 0 1 3.76-4.23c2.5-.16 9.67-1.55 12.68-5.97.48-.7.56-1.13.52-1.22-.31-.83-2.62-2.05-4.29-2.47a4.001 4.001 0 1 1 1.96-7.76c1.29.33 7.85 2.22 9.81 7.39.73 1.91 1.07 4.95-1.39 8.57-5.86 8.6-18.29 9.42-18.82 9.45-.08.01-.16.01-.24.01" style="fill:#2d2d2d"/><path d="M327.39 264.18a3.997 3.997 0 0 1-.19-7.99c.02 0 5.3-.41 10.79-4.89.66-.54.95-.98.93-1.18-.06-.9-1.78-2.66-3.23-3.57-1.86-1.17-2.44-3.63-1.28-5.5s3.61-2.46 5.48-1.3c1.11.68 6.63 4.35 7 9.84.14 2.06-.42 5.11-3.86 7.92-7.62 6.22-15.14 6.67-15.45 6.68-.06-.02-.12-.01-.19-.01" style="fill:#2d2d2d"/><path d="M317.9 278.96c-7.35 0-15.22-3.01-21.54-13.13-6.43-10.3-8.57-29.87-.79-43.54 3.74-6.57 11.2-14.34 25.69-14.01a4 4 0 0 1 3.91 4.09c-.05 2.21-1.89 3.95-4.09 3.91-8.43-.19-14.69 3.17-18.56 9.97-6.12 10.76-4.62 26.96.62 35.34 7.62 12.2 17.26 10.93 30.34 4.91 2.81-1.29 4.47-2.82 4.94-4.56.57-2.1-.65-4.5-1.17-5.24-1.25-1.8-.83-4.29.95-5.56a3.977 3.977 0 0 1 5.54.9c.42.57 4.02 5.79 2.42 11.9-1.09 4.18-4.24 7.49-9.35 9.84-4.19 1.93-11.27 5.18-18.91 5.18M463.36 240.07c-10.53 0-18.79-12.91-18.79-29.39s8.25-29.39 18.79-29.39 18.79 12.91 18.79 29.39-8.26 29.39-18.79 29.39m0-50.79c-5.1 0-10.79 8.79-10.79 21.39 0 12.61 5.68 21.39 10.79 21.39s10.79-8.79 10.79-21.39c-.01-12.6-5.69-21.39-10.79-21.39" style="fill:#2d2d2d"/><path d="M464.8 228.5c-6.14 0-10.59-7.5-10.59-17.82s4.45-17.82 10.59-17.82 10.59 7.5 10.59 17.82-4.45 17.82-10.59 17.82m0-27.5c-.93.87-2.59 4.2-2.59 9.68s1.66 8.81 2.59 9.68c.93-.87 2.59-4.2 2.59-9.68s-1.66-8.81-2.59-9.68" style="fill:#2d2d2d"/><path d="M439.52 238.35c-6.95 0-14.91-1.06-21.76-4.72-5.61-2.99-9.13-7.92-10.18-14.23-1.63-9.73 3.04-21.12 6.89-25.26 1.87-2.01 5.92-4.09 21.8-4.26 8.2-.08 15.75.38 16.07.4 2.21.14 3.88 2.04 3.74 4.24s-2.04 3.88-4.24 3.74c-13.02-.81-28.73-.44-31.59 1.41-2.04 2.32-6 11.09-4.78 18.4.65 3.89 2.63 6.66 6.06 8.5 13.25 7.08 33.01 2.06 33.21 2.01 2.14-.56 4.32.73 4.88 2.86.56 2.14-.73 4.32-2.86 4.88-.54.14-7.98 2.03-17.24 2.03" style="fill:#2d2d2d"/><path d="M426.64 236.8c-1.35 0-2.67-.69-3.42-1.93-12.47-20.58.75-41.91 1.32-42.8a3.998 3.998 0 0 1 6.76 4.27c-.46.74-11.11 18.1-1.24 34.39 1.14 1.89.54 4.35-1.35 5.49-.65.4-1.36.58-2.07.58" style="fill:#2d2d2d"/><path d="M323.53 221.1c-1.92 0-3.61-1.39-3.94-3.34-.82-4.9-2.99-40.27 11.42-44.06 9.84-2.59 92.02-1.58 103.45 1.27 11.19 2.79 11.62 14.18 10.29 19.81a3.995 3.995 0 0 1-4.81 2.97 4 4 0 0 1-2.97-4.8c.2-.9 1.77-8.67-4.44-10.22-10.02-2.5-90.9-3.55-99.48-1.3-5.32 1.4-7.2 25.17-5.56 35.01a4 4 0 0 1-3.29 4.6c-.23.05-.45.06-.67.06M342.98 255.8h-.4c-2.21 0-4-1.79-4-4s1.79-4 4-4h.5c38.74 0 82.21-.82 86.86-2.35 3.83-1.28 4.2-8.41 4.03-10.81a3.997 3.997 0 0 1 3.69-4.28c2.19-.16 4.12 1.47 4.29 3.67.45 5.74-1.04 16.2-9.47 19.01-7.86 2.62-74.99 2.76-89.5 2.76" style="fill:#2d2d2d"/><path d="M382.09 238.34h-37.34c-2.21 0-4-1.79-4-4v-23.67c0-2.21 1.79-4 4-4h37.34c2.21 0 4 1.79 4 4v23.67c0 2.21-1.79 4-4 4m-33.34-8h29.34v-15.67h-29.34zM349.49 205.3c-5.83 0-10.57-4.74-10.57-10.56 0-5.83 4.74-10.56 10.57-10.56s10.56 4.74 10.56 10.56c0 5.83-4.74 10.56-10.56 10.56m0-13.12c-1.42 0-2.57 1.15-2.57 2.56s1.15 2.56 2.57 2.56c1.41 0 2.56-1.15 2.56-2.56s-1.15-2.56-2.56-2.56M378.06 205.3c-5.83 0-10.56-4.74-10.56-10.56 0-5.83 4.74-10.56 10.56-10.56s10.56 4.74 10.56 10.56c0 5.83-4.73 10.56-10.56 10.56m0-13.12c-1.41 0-2.56 1.15-2.56 2.56s1.15 2.56 2.56 2.56 2.56-1.15 2.56-2.56-1.15-2.56-2.56-2.56M475.41 173.53H440.7c-7.97 0-14.45-6.48-14.45-14.45v-9c0-7.97 6.48-14.45 14.45-14.45h34.71c7.97 0 14.45 6.48 14.45 14.45v9c0 7.97-6.48 14.45-14.45 14.45m-34.71-29.89c-3.55 0-6.45 2.89-6.45 6.45v9c0 3.55 2.89 6.45 6.45 6.45h34.71c3.55 0 6.45-2.89 6.45-6.45v-9c0-3.55-2.89-6.45-6.45-6.45z" style="fill:#2d2d2d"/><path d="M451.79 173.53c-1.37 0-2.7-.7-3.45-1.97-13.1-22.19.21-34.41.79-34.92a4.001 4.001 0 0 1 5.35 5.95c-.43.41-8.83 8.65.76 24.9a4.009 4.009 0 0 1-3.45 6.04M396.82 180.17a3.99 3.99 0 0 1-3.97-3.59c-.63-6.12-1.68-20.91 2.01-26.08 1.65-2.31 5.28-4.49 20.47-4.73 7.7-.12 14.87.31 15.17.33 2.21.13 3.88 2.03 3.75 4.24a3.99 3.99 0 0 1-4.24 3.75c-13.06-.8-26-.2-28.77 1.29-1.12 2.31-1.33 11.58-.43 20.39.22 2.2-1.38 4.16-3.57 4.39-.15 0-.29.01-.42.01" style="fill:#2d2d2d"/><path d="M403.89 180.17c-1.9 0-3.58-1.36-3.93-3.29-.43-2.38-2.35-14.53 1.91-20.12 1.39-1.83 3.3-2.9 5.52-3.1 7.27-.66 20.18-.04 20.73-.01 2.21.11 3.91 1.98 3.8 4.19a3.995 3.995 0 0 1-4.19 3.8c-.13-.01-12.78-.62-19.51-.02-1.21 1.33-1.41 8.08-.38 13.85a4 4 0 0 1-3.23 4.64q-.375.06-.72.06" style="fill:#2d2d2d"/><path d="M340.51 180.17c-2.02 0-3.76-1.53-3.97-3.58-.04-.41-1.05-10.1-1.04-20.09.02-16.37 2.65-23.65 8.79-24.36 4.64-.54 25.5-.9 44.44-.55 40.45.75 41.68 3.67 42.88 6.5 2.69 6.37-3.64 12.19-9.88 15.25-1.98.97-4.38.15-5.35-1.83a4.005 4.005 0 0 1 1.83-5.35c2.44-1.21 4.68-3.01 5.6-4.2-11.34-2.94-67.62-2.94-78.14-1.92-2.33 3-2.88 19.37-1.16 35.72a4 4 0 0 1-3.56 4.4c-.16 0-.3.01-.44.01" style="fill:#2d2d2d"/><path d="M353.43 178.68c-2.09 0-3.81-1.61-3.99-3.66-.07-.33-.3-1.16-.48-1.84-1.92-7-5.48-20.04 2.98-23.43 6.75-2.7 35.84-.89 44.59-.28a4.01 4.01 0 0 1 3.71 4.27 4.005 4.005 0 0 1-4.27 3.71c-17.33-1.22-37.32-1.67-40.99-.3-.49.66-1.2 3.33 1.7 13.92.52 1.89.75 2.75.75 3.61 0 2.2-1.79 4-4 4m-4-4c0 .07 0 .16.01.26-.01-.09-.01-.18-.01-.26" style="fill:#2d2d2d"/><path d="M357.61 156.32c-2.21 0-4-1.79-4-4v-14.29c0-2.21 1.79-4 4-4s4 1.79 4 4v14.29c0 2.21-1.79 4-4 4M374.22 273.26c-.97 0-1.98-.03-3.02-.09-25.97-1.48-26.27-21.17-26.27-21.37 0-2.21 1.79-4 4-4 2.2 0 3.98 1.77 4 3.96.03 1.3.83 12.39 18.73 13.42 17.77 1.01 21.75-8.47 24.12-14.14.1-.25.2-.48.3-.7v-73.68c0-2.21 1.79-4 4-4s4 1.79 4 4v74.52c0 .58-.12 1.15-.36 1.67-.17.37-.35.8-.55 1.29-2.45 5.82-8.02 19.12-28.95 19.12M376.89 485.64c-9.12 0-16.54-7.42-16.54-16.54s7.42-16.54 16.54-16.54 16.54 7.42 16.54 16.54-7.42 16.54-16.54 16.54m0-25.07c-4.71 0-8.54 3.83-8.54 8.54s3.83 8.54 8.54 8.54 8.54-3.83 8.54-8.54-3.83-8.54-8.54-8.54M441.47 473.1c-9.12 0-16.54-7.42-16.54-16.54s7.42-16.54 16.54-16.54 16.54 7.42 16.54 16.54-7.42 16.54-16.54 16.54m0-25.07c-4.71 0-8.54 3.83-8.54 8.54s3.83 8.54 8.54 8.54 8.54-3.83 8.54-8.54-3.83-8.54-8.54-8.54M308.75 464.24c-9.12 0-16.54-7.42-16.54-16.54s7.42-16.54 16.54-16.54 16.54 7.42 16.54 16.54-7.42 16.54-16.54 16.54m0-25.07c-4.71 0-8.54 3.83-8.54 8.54s3.83 8.54 8.54 8.54 8.54-3.83 8.54-8.54-3.83-8.54-8.54-8.54" style="fill:#2d2d2d"/><path d="M383 460.57c-2.2 0-3.99-1.78-4-3.98l-.91-187.31a4 4 0 0 1 3.98-4.02h.02c2.2 0 3.99 1.78 4 3.98l.91 187.31a4 4 0 0 1-3.98 4.02zM369.69 462.86h-.04a4 4 0 0 1-3.96-4.04l1.74-189.6c.02-2.2 1.81-3.96 4-3.96h.04a4 4 0 0 1 3.96 4.04l-1.74 189.6a4.003 4.003 0 0 1-4 3.96" style="fill:#2d2d2d"/><path d="M318.48 443.79q-.54 0-1.08-.15a4 4 0 0 1-2.78-4.93l47.49-170.54a4.002 4.002 0 0 1 7.71 2.15l-47.49 170.54c-.5 1.78-2.1 2.93-3.85 2.93M304.25 439.17q-.6 0-1.2-.18a3.994 3.994 0 0 1-2.62-5.01l53.15-169.83c.66-2.11 2.9-3.28 5.01-2.62s3.28 2.9 2.62 5.01l-53.15 169.83a3.99 3.99 0 0 1-3.81 2.8M433.56 450.85c-1.78 0-3.41-1.2-3.87-3.01l-46.1-180.24a4 4 0 1 1 7.75-1.99l46.1 180.24a4 4 0 0 1-2.88 4.87c-.34.09-.67.13-1 .13M448.93 447.96l-5.3-5.99 2.63 3.01-3.9.9c-.63-2.59-32.59-121.93-49.41-184.67a4 4 0 0 1 2.83-4.9 4 4 0 0 1 4.9 2.83s12.38 46.19 24.75 92.38c6.18 23.1 12.37 46.2 17 63.53 2.32 8.67 4.24 15.89 5.59 20.95.67 2.53 1.2 4.52 1.56 5.88.76 2.86 1.18 4.44-.65 6.08M247.95 258.4c-6.2 0-10.06-2.26-12.39-4.58-2.91 1.87-7.56 3.31-14.69 1.91-9.2-1.8-12.69-8.11-13.61-13.17-5.16-.62-15.07-2.48-25.28-7.95-13.5-7.24-30.04-22.35-32.15-53.23-1.9-27.74 5.44-51.28 21.22-68.08 15.64-16.65 39.19-25.7 66.37-25.55 47.32.29 75.34 22.54 83.3 66.12 6.58 36.04-4.58 60.33-5.06 61.34-.94 2-3.32 2.85-5.32 1.91s-2.85-3.32-1.92-5.32c.16-.35 10.51-23.21 4.43-56.5-7.27-39.81-31.96-59.29-75.48-59.56-25.23-.15-46.18 7.81-60.49 23.03-14.22 15.13-20.81 36.59-19.07 62.05 3.56 51.86 51.31 53.98 53.34 54.04a4.007 4.007 0 0 1 3.86 4.36c-.08 1.15-.11 7.18 7.39 8.65 7.53 1.47 9.81-1.48 10.14-1.97.62-1.61 2.11-2.59 3.84-2.5 1.75.08 3.15 1.35 3.59 3.05.13.35 1.72 4.15 8.54 3.94 4.41-.14 6.19-1.59 6.4-2.83-.13-1.63.77-2.99 2.24-3.71 1.5-.73 3.31-.26 4.52.89.18.16 5.11 4.57 12.15 1.75 6.38-2.55 5.67-9.1 5.56-9.84-.29-2.09 1.08-4.08 3.15-4.5 3.43-.71 7.96-2.33 8.98-3.51a3.995 3.995 0 0 1 5.64-.43 3.995 3.995 0 0 1 .43 5.64c-2.29 2.67-6.85 4.38-10.17 5.33-.38 4.99-2.86 11.64-10.62 14.74-6.8 2.72-12.46 1.33-16.12-.42-2.05 2.51-5.72 4.69-11.92 4.88-.26.02-.53.02-.8.02m6.98-10.76" style="fill:#2d2d2d"/><path d="M219.34 265.17c-8.53 0-19.15-1.93-31.82-7.71-20.73-9.46-36.66-26.75-43.72-47.42-7.58-22.22-4.67-47.09 8.41-71.94 16.05-30.47 35.89-48.33 49.71-57.95 15.08-10.49 30.59-16.31 38.61-14.48 13.57 3.1 55.62 26.35 74.35 62.82 18.59 36.21 18.63 49.32 18.57 50.7a3.99 3.99 0 0 1-4.16 3.83 3.994 3.994 0 0 1-3.83-4.16c0-.05-.1-12.45-17.69-46.72-18.44-35.92-60.04-56.63-69.01-58.68-9.03-2.07-51.47 15.2-79.46 68.36-12.03 22.85-14.77 45.54-7.92 65.63 6.35 18.6 20.73 34.18 39.47 42.73 32.3 14.75 48.43 1.73 49.1 1.17 1.34-1.12 3.27-1.26 4.74-.33 21.96 13.98 47.08-6.27 47.33-6.48a4 4 0 0 1 5.63.55c1.4 1.7 1.16 4.22-.54 5.62-1.17.97-28.2 22.86-54.39 8.43-3.7 2.31-11.53 6.03-23.38 6.03" style="fill:#2d2d2d"/><path d="M194.34 264.66c-31.08 0-52.99-14.1-66.32-26.63-17.11-16.08-25.55-34.24-26.96-40.52-.77-3.42-1.08-6.47-1.35-9.16-.72-7.09-1.18-9.44-6.04-11.64-6.93-3.13-12.19-9.97-13.41-17.44-1-6.14.87-11.76 5.26-15.83 4.73-4.38 6.77-7.43 6.82-10.19.05-2.71-1.79-5.9-5.65-9.76-9.48-9.48-26.95-8.49-27.13-8.48-1.44.09-2.82-.6-3.61-1.81a3.99 3.99 0 0 1-.19-4.03c6.69-12.77 33.43-55.84 96.66-73.99 32.08-9.21 59.39-11.19 83.49-6.05 25.73 5.48 47.9 18.99 67.77 41.31 39.88 44.78 38.19 74.97 38.09 76.24a3.987 3.987 0 0 1-4.28 3.7 3.99 3.99 0 0 1-3.7-4.25c.02-.28 1.26-28.42-36.09-70.36-36.28-40.74-80.4-50.88-143.09-32.89-52.72 15.13-78.66 48.24-88.53 64.31 7.23.61 18.47 2.87 26.25 10.66 5.47 5.47 8.08 10.56 7.99 15.57-.12 6.46-4.58 11.47-9.38 15.91-3.03 2.8-3.2 6.26-2.8 8.67.79 4.82 4.32 9.41 8.8 11.43 9.3 4.19 10.01 11.27 10.71 18.12.26 2.58.53 5.26 1.19 8.21 1.01 4.5 8.72 21.49 24.63 36.44 13.56 12.75 36.79 27.26 70.4 23.99 2.19-.21 4.15 1.4 4.37 3.59a4.01 4.01 0 0 1-3.59 4.37c-3.53.35-6.97.51-10.31.51" style="fill:#2d2d2d"/><path d="M205.9 222.42c-8.07 0-16.03-4.78-21.36-12.85-6.08-9.21-7.34-20.61-3.32-29.83 1.01-3.5 9.86-31.94 32.37-35.69 10.4-1.73 19.58.99 25.85 7.67 7.48 7.97 9.91 20.54 6.67 34.47-5.2 22.31-20.08 35.85-39.82 36.23zm13.73-70.89c-1.51 0-3.09.14-4.72.41-18.47 3.08-25.97 29.94-26.05 30.21-.06.2-.13.4-.21.59-3.06 6.79-2.07 15.38 2.58 22.42 3.84 5.81 9.31 9.26 14.68 9.26h.24c16.08-.3 27.8-11.26 32.18-30.04 2.63-11.28.91-21.19-4.71-27.18-3.52-3.75-8.29-5.67-13.99-5.67M185 181.1" style="fill:#2d2d2d"/><path d="M287.21 219.67c-6.17 0-12.3-1.95-17.42-5.74-1.44-.99-16.82-11.93-20.87-30.08-2.39-10.72-.9-25.46 7.81-34.22 4.15-4.17 11.61-8.6 23.62-6 25.87 5.62 36.84 30.2 34.3 51.58-1.21 10.19-7.04 18.25-16.01 22.11a28.8 28.8 0 0 1-11.43 2.35m-13.73-68.81c-4.45 0-8.16 1.48-11.08 4.41-5.61 5.64-7.94 16.68-5.68 26.84 3.47 15.57 17.47 25.15 17.62 25.25.05.04.1.07.15.11 5.97 4.44 14.21 5.43 20.98 2.51 6.36-2.74 10.35-8.32 11.23-15.71 2.11-17.79-6.85-38.21-28.06-42.82-1.81-.4-3.53-.59-5.16-.59M260.71 229.88h-.08c-4.11-.04-7.33-3.64-7.93-4.36-.08-.1-.16-.2-.23-.31-1.39-2.03-4.41-7.16-2.45-11.06.59-1.17 2.1-3.16 5.59-3.3 4.57-.18 9.3 2.77 11.41 7.18 1.6 3.35 1.26 6.83-.9 9.3-1.44 1.65-3.36 2.55-5.41 2.55m-1.77-9.37c.2.22.43.44.67.63-.14-.23-.33-.49-.57-.75-.14-.15-.29-.29-.44-.43.12.2.23.38.34.55M236.97 229.41c-1.94 0-3.75-.59-5.19-1.75-2.31-1.86-3.28-4.9-2.59-8.12.06-.28.15-.56.27-.82 2.04-4.48 6.29-9.19 11.57-7.71 3.33.93 5.66 4.01 5.95 7.85.31 4.17-1.8 7.9-5.38 9.52-1.56.68-3.13 1.03-4.63 1.03m.01-7.74h.01zm1.94-2.72c-.55.47-1.3 1.45-1.86 2.46.27-.01.7-.09 1.26-.35.43-.19.6-.66.66-1.01.08-.45.02-.84-.06-1.1M288.38 372.12q-1.17 0-2.34-.06c-6.92-.36-12.78-3.61-16.95-9.38-5.78-7.99-6.95-18.96-5.12-25.67 1.85-6.77 1.25-9.4-1.63-22.03-.64-2.81-1.38-6.07-2.22-9.92-5.03-23.11 17.34-49.49 18.3-50.6a3.995 3.995 0 0 1 5.64-.43 4.004 4.004 0 0 1 .43 5.64c-.15.17-10.77 12.72-15.2 26.89 26.99 1.05 41.86-14.51 42.01-14.67a3.98 3.98 0 0 1 4.05-1.11c2.31.67 3.6 2.75 4.37 4.25 3.84 7.5 6.81 26.83 2.54 38.89-1.37 3.87-2.73 6.53-3.82 8.67-2.5 4.91-3.44 6.75-.35 18.29 2.67 9.97-.55 16.74-3.73 20.66-5.38 6.63-15.18 10.58-25.98 10.58m-20.82-77.63c-.33 3.01-.26 6 .37 8.87.83 3.82 1.57 7.06 2.21 9.84 2.93 12.87 3.92 17.21 1.55 25.92-1.31 4.82-.22 13.19 3.89 18.87 2.75 3.8 6.41 5.84 10.89 6.08 9.06.48 17.57-2.49 21.67-7.56 2.92-3.6 3.66-8.16 2.22-13.55-3.72-13.89-2.32-17.59.95-23.99 1.04-2.03 2.21-4.33 3.4-7.71 3.29-9.29.95-24.23-1.26-30.59-6.7 5.37-22.29 15.17-45.85 13.82zm44.56-16.56" style="fill:#2d2d2d"/><path d="M312.73 339.52c-1.43 0-2.81-.77-3.53-2.11a4.014 4.014 0 0 1 1.63-5.42c.21-.11 20.96-11.31 28.24-20.6a3.997 3.997 0 0 1 5.62-.68 3.997 3.997 0 0 1 .68 5.62c-8.31 10.61-29.84 22.23-30.75 22.72-.61.31-1.25.47-1.89.47M359.33 297.08a3.98 3.98 0 0 1-2.96-1.31 4 4 0 0 1 .26-5.65l10.36-9.44a4 4 0 0 1 5.39 5.91l-10.36 9.44c-.76.71-1.73 1.05-2.69 1.05M274.67 368.08c-3.99 0-16.24-.62-32.25-7.27-17.51-7.27-43.14-23.52-65.84-59.61a4.004 4.004 0 0 1 1.26-5.52 4.01 4.01 0 0 1 5.52 1.26c21.43 34.08 45.37 49.42 61.68 56.29 17.63 7.43 30.41 6.84 30.54 6.83a4 4 0 0 1 4.21 3.77c.12 2.2-1.55 4.09-3.75 4.22-.1 0-.57.03-1.37.03M327.48 364.97c-.11 0-.22 0-.33-.01-10.31-.85-15.64-12.58-15.86-13.08-.9-2.02.01-4.38 2.03-5.28 2.01-.9 4.37.01 5.28 2.02 1 2.2 4.59 7.99 9.21 8.37 2.2.18 3.84 2.11 3.66 4.32a4.02 4.02 0 0 1-3.99 3.66M332.27 398.22c-.28 0-.45-.01-.49-.01a4.01 4.01 0 0 1-3.75-4.24 4 4 0 0 1 4.24-3.75c.17.01 5.25.15 9.6-4.36 3.41-3.53 7.63-10.97 9.6-15.44-3.57-.53-8.07-1.53-11.9-2.46a3.993 3.993 0 0 1-2.94-4.83 3.993 3.993 0 0 1 4.83-2.94c5.53 1.34 12.46 2.71 14.02 2.63 1.88-.27 3.66.62 4.53 2.29.69 1.31 1.73 3.3-3.51 13.18-2.89 5.45-6.21 10.35-8.88 13.12-6.11 6.35-13.39 6.81-15.35 6.81m23.17-35.39h-.03z" style="fill:#2d2d2d"/><path d="M250.33 436.27c-3.07 0-6.02-.47-8.68-1.44-3.83-1.4-7.64-3.54-11.32-5.62-10.9-6.14-18.06-9.47-25.72-3.9-9.32 6.78-25.02 9.33-38.19 6.22-9.77-2.31-17.18-7.5-20.86-14.61-3.48-6.73-7.62-10.85-12.29-12.25-4.58-1.37-10.12-.25-16.48 3.33-9.42 5.3-21.42 6.64-31.32 3.5-8.16-2.59-14.37-7.97-17.97-15.55-7.84-16.51-17.85-29.27-17.95-29.4a4.007 4.007 0 0 1 1.67-6.2c.21-.08 21.74-8.86 35.81-30.91 3.86-6.04 8.38-14.37 13.17-23.19 14.65-26.96 31.24-57.52 47.93-61.39 2.16-.5 4.3.84 4.8 2.99a4 4 0 0 1-2.99 4.8c-13.19 3.06-30.25 34.48-42.71 57.42-4.86 8.95-9.45 17.4-13.46 23.68-11.52 18.05-27.23 27.86-34.96 31.87 3.73 5.22 10.29 15.05 15.92 26.91 2.62 5.53 7.18 9.45 13.17 11.35 7.73 2.46 17.53 1.34 24.97-2.85 8.32-4.68 15.96-6.03 22.7-4.02 6.83 2.04 12.58 7.51 17.1 16.24 2.59 5.01 8.13 8.74 15.59 10.5 10.89 2.58 24.2.52 31.64-4.9 12.37-8.99 24.56-2.12 34.36 3.4 3.56 2.01 6.93 3.9 10.14 5.08 5.78 2.11 14.41.57 20.98-3.75 5.01-3.29 8.03-7.67 8.28-12.01.38-6.56 2.38-11.38 5.95-14.33 4.67-3.85 10.73-3.62 15.48-2.99 6.96.92 20.31-.02 20.45-.02a4 4 0 1 1 .58 7.98c-.58.04-14.3 1.01-22.07-.02-4.67-.62-7.56-.24-9.34 1.23s-2.81 4.37-3.06 8.62c-.41 7-4.62 13.47-11.87 18.24-6 3.9-12.99 5.99-19.45 5.99M105.71 203.11c-.31 0-.62-.04-.94-.11-2.17-.52-53.28-12.82-65.25-16.45-6.49-1.97-10.29-7-10.17-13.47.12-6.8 4.65-13.3 10.31-14.8 7.78-2.06 48.99 10.25 61.43 14.07 2.11.65 3.3 2.89 2.65 5a4.004 4.004 0 0 1-5 2.65c-24.59-7.55-52.66-14.84-57.07-13.98-1.93.51-4.26 3.77-4.32 7.2-.05 2.84 1.46 4.75 4.5 5.67 11.75 3.57 64.27 16.2 64.8 16.33 2.15.52 3.47 2.68 2.95 4.82a4.03 4.03 0 0 1-3.89 3.07" style="fill:#2d2d2d"/><path d="M65.52 359.61c-.49 0-.99-.09-1.46-.28-1.37-.54-33.58-13.95-40.64-72.21C16.5 229.98 39.9 183.89 40.9 181.96a4.01 4.01 0 0 1 5.39-1.72 4.007 4.007 0 0 1 1.72 5.39c-.23.45-23.27 45.92-16.65 100.53 4.38 36.09 19.1 53.42 28.21 60.87-1.23-10.39-.7-28.45 10.02-52.79 16.99-38.56 54.78-63.91 56.38-64.97a3.996 3.996 0 1 1 4.42 6.66c-.37.25-37.45 25.15-53.48 61.53-15.7 35.63-7.75 56.44-7.67 56.65a4.02 4.02 0 0 1-.88 4.32c-.77.77-1.79 1.18-2.84 1.18" style="fill:#2d2d2d"/><path d="M63.11 342.87a4 4 0 0 1-3.89-3.09c-12.99-55.71 43.61-128.5 46.03-131.58a3.995 3.995 0 0 1 5.62-.67 3.997 3.997 0 0 1 .67 5.62c-.57.72-56.64 72.85-44.53 124.81a4 4 0 0 1-2.99 4.8c-.3.08-.61.11-.91.11" style="fill:#2d2d2d"/></g><g id="colr"><path d="M426.16 140.67c.6 2.37-3.92 5.6-6.59 7.03-9.42-.09-20.32.55-22.97 3.81-.07-.01-.15-.03-.22-.04-3-.21-24.7-1.69-36.78-.93v-12.5c0-.19-.04-.38-.09-.55 22.7-.4 62.01.3 66.65 3.18M344.91 249.8v-.1c-.23-3.44-3.17-6.15-4.88-7.46.32-.38.63-.78.91-1.2 1.98-2.9 1.73-5.26 1.18-6.73-.86-2.26-2.92-3.78-4.8-4.76 1.43-1.37 2.42-3.02 2.49-4.9.07-2.03-.94-4.92-6.16-7.15-2.77-1.19-5.56-1.31-8.15-.86-1.26-7.8-.63-30.46 5.15-36.02.09-.06.17-.13.25-.21.51-.44 1.06-.76 1.65-.92 5.63-1.48 38.64-1.65 65.54-.93v70.66c-16.75.4-36.92.57-53.18.58" style="fill:#4db1ef"/><path d="M273.95 359.17c-4.63-6.4-5.62-15.37-4.2-20.57 2.24-8.22 1.36-12.1-1.57-24.95-.64-2.79-1.38-6.03-2.21-9.86-.88-4.03-.74-8.24.05-12.41a2 2 0 0 0 1.68 1.12c25.85 1.48 41.78-10.8 46.51-15.09 2.6 4.61 6.37 23.25 2.38 34.53-1.24 3.5-2.44 5.86-3.5 7.95-3.11 6.1-4.34 9.36-.8 22.57.71 2.65.94 5.13.7 7.42-.01.05-.01.1-.02.15-.33 2.89-1.42 5.48-3.27 7.76-4.57 5.64-13.51 8.82-23.33 8.3-5.13-.29-9.3-2.61-12.42-6.92M190.01 252c-19.23-8.78-34-24.78-40.53-43.9-6.59-19.31-4.57-40.91 5.81-62.75-3.16 10.84-4.36 22.88-3.46 35.9 2.05 29.97 18.05 44.6 31.1 51.6 11.12 5.96 21.83 7.5 26.11 7.9.36 4.58 3.15 11.25 12.22 13.03 7.87 1.54 12.3-.62 14.59-2.63.78 1.02 1.89 2.15 3.46 3.1-5.34 3.25-21.67 10.37-49.3-2.25" style="fill:#383838"/><path d="M312.78 226.21c.76.8 2.03.82 2.83.05.09-.08 8.81-8.35 16.47-5.07 2.41 1.03 3.77 2.25 3.74 3.34-.05 1.38-2.25 3.57-5.86 4.83-6.5 2.27-11.33 4.84-11.53 4.94-.97.52-1.34 1.73-.82 2.71a1.99 1.99 0 0 0 1.77 1.06c.32 0 .64-.08.94-.23.05-.03 4.78-2.53 10.97-4.7.7-.24 1.41-.54 2.13-.89 1.7.56 4.36 1.85 4.98 3.5.12.31.48 1.27-.74 3.06-4.2 6.16-14.12 6.84-14.21 6.84a2 2 0 0 0-1.88 2.11c.06 1.06.94 1.88 1.99 1.88h.12c.39-.02 7.71-.51 13.37-4.62 1.21.82 3.76 2.95 3.89 4.96.01.18.03.53-.16 1.02-.01.02-.01.03-.02.05-.21.49-.62 1.1-1.48 1.8-6.05 4.94-11.91 5.33-11.96 5.34-1.1.06-1.95.99-1.9 2.1a2 2 0 0 0 2 1.9h.1c.26-.01 5.97-.36 12.36-4.79.54 1.31 1.02 3.18.52 5.06-.62 2.34-2.66 4.32-6.04 5.88-7.26 3.34-13.72 5.31-19.44 4.42-.04-.01-.07-.03-.11-.04-.15-.04-.31-.06-.47-.07-4.81-.92-9.09-3.94-12.86-9.98-5.55-8.87-7.14-26.01-.67-37.39 4.2-7.38 11.22-11.19 20.34-10.98.03 0 .06-.01.09-.01.1 1.32.22 2.41.35 3.16.02.11.05.22.08.32-4.96 1.96-8.57 5.38-8.82 5.62-.82.76-.84 2.02-.07 2.82M294.68 229.26c-.6-.04-1.22.19-1.64.69-1.58 1.84-7.03 3.53-10.09 4.17a2 2 0 0 0-1.57 2.27c.05.36 1.27 8.75-6.8 11.98-8.27 3.31-14.04-1.94-14.27-2.16-.57-.54-1.4-.68-2.13-.38a2.02 2.02 0 0 0-1.25 1.79c-.02.46-.41 4.54-8.35 4.79-8.51.26-10.44-5.14-10.51-5.34-.24-.78-.94-1.32-1.75-1.38a2.03 2.03 0 0 0-1.96 1.11c-.1.2-2.61 4.97-12.33 3.06-9.44-1.85-9.07-9.89-9-10.79.05-.55-.13-1.1-.5-1.51a2 2 0 0 0-1.44-.67c-.13 0-13.02-.45-26.27-7.55-17.7-9.49-27.45-25.75-29-48.35-1.79-26.03 4.99-48.01 19.61-63.56 14.69-15.64 36.09-23.83 61.96-23.66 44.64.28 69.97 20.3 77.44 61.2 5.6 30.66-2.49 52.65-4.26 56.94-6.77 2.42-10.85 7.17-13.25 11.4-1.09 1.86-1.94 3.87-2.64 5.95" style="fill:#fff"/><path d="M321.01 210.29c-2.05-.03-3.94.12-5.69.4 2.88-8.04 8.52-28.64 3.44-56.46a112 112 0 0 0-1.52-7.03c8.7 19.47 10 28.66 10.19 31.08-5.78 6.44-6.72 22.19-6.42 32.01M237.4 89.75h-.73c-22.05 0-41.61 6.24-56.27 17.75 9.02-10.2 17.82-17.46 24.95-22.42 16.77-11.67 29.66-14.51 33.85-13.55 8.56 1.96 30.49 13.38 49.03 31.55-13.1-8.73-30.05-13.2-50.83-13.33M259.99 250.88c3.08 1.85 8.84 4.09 16.07 1.19 7.62-3.05 9.48-9.98 9.42-14.44 1.99-.51 5.25-1.49 7.81-2.93-.72 3.92-.88 7.96-.6 11.86-3.52 2.66-22.62 16.08-41.76 9.66 5.45-.71 7.93-3.22 9.06-5.34" style="fill:#383838"/><path d="M283.4 256.69c4.26-1.99 7.67-4.11 9.83-5.6.88 5.27 2.57 10.08 4.82 13.68 3.63 5.81 7.74 9.16 12.09 10.83-5.61 4.57-20.12 14.16-42.21 12.9-.53-.04-1.01.14-1.38.45 3.92-15.85 16.24-30.39 16.41-30.58.41-.48.55-1.1.44-1.68" style="fill:#fff"/><path d="M340.42 312.89c-6.12 7.59-20.41 16.19-26.17 19.48-.54-4.93.56-7.08 2.39-10.67 1.06-2.09 2.39-4.68 3.71-8.43 4.03-11.39 1.12-29.2-1.99-36.34 5.88-.16 11.91-2.34 17.62-4.96 4.54-2.09 7.32-4.96 8.25-8.53.94-3.57-.28-6.87-1.21-8.71.27-.31.51-.62.71-.92h3.42c.52 2.88 2.24 8.31 7.89 12.36z" style="fill:#5e5e5e"/><path d="M344.98 138.09c1.95-.23 5.75-.41 10.69-.53-.04.15-.06.31-.06.47v12.89c-1.22.18-2.22.4-2.92.68-6.81 2.72-3.55 14.64-1.8 21.04.16.59.34 1.24.45 1.68-3.28.07-6.3.17-8.96.29-.27-2.99-.89-10.56-.88-18.14.02-14.22 2.28-18.24 3.48-18.38" style="fill:#88d5fc"/><path d="M86.19 158.32c-.47-2.89-.26-7.05 3.42-10.46 4.48-4.15 8.63-8.77 8.74-14.48.09-4.49-2.27-8.98-7.4-14.11-8.66-8.66-21.93-10.1-28.23-10.26 8.53-14.91 34.68-51.77 91.37-68.04 63.52-18.23 108.28-7.91 145.13 33.48 38.01 42.69 36.61 71.47 36.59 71.82-.08 1.1.75 2.05 1.85 2.13h.14c-.19 2.39-.3 5.08-.3 8.11-.01 7.58.59 15.17.88 18.34-3.24.21-5.63.48-6.86.8-.13.03-.24.09-.37.13-.9-5.83-4.42-19.81-18.05-46.36C293.43 91.1 250 69.9 240.09 67.63c-12.94-2.95-57.86 17.77-86.11 71.41-12.82 24.35-15.69 48.68-8.29 70.36 6.88 20.16 22.43 37.01 42.65 46.25 2.54 1.16 4.99 2.15 7.36 3.01-18.02.28-33.02-4.39-45.25-11.31-.25-.26-.57-.44-.92-.53-7.65-4.45-14.19-9.78-19.69-15.29 0-.01-.01-.01-.01-.02a1.9 1.9 0 0 0-.55-.55c-14.32-14.6-21.4-30.37-22.38-34.75-.69-3.07-.98-5.93-1.23-8.45-.5-4.91-.96-9.33-4.2-12.82-.04-.05-.09-.1-.14-.15-1.27-1.32-2.94-2.51-5.2-3.53-5.05-2.3-9.05-7.49-9.94-12.94" style="fill:#5e5e5e"/><path d="M63.38 319.08c1.85-48.4 43.78-103.53 46.45-106.99 3.62 6.15 8.69 13.29 15.28 20.22-8.08 5.81-39.11 29.65-53.69 62.73-3.92 8.91-6.46 16.94-8.04 24.04" style="fill:#eaeaea"/><path d="M35.34 173.18c.07-4.12 2.75-8.29 5.85-9.11 4.87-1.29 37.71 7.75 57.63 13.85 2.09 2.44 2.41 5.63 2.88 10.23.25 2.44.54 5.19 1.17 8.21-11.77-2.85-51.54-12.51-61.61-15.57-5.24-1.58-5.96-5.45-5.92-7.61" style="fill:#ffc166"/><path d="M29.38 286.4c-6.03-49.79 12.29-92.02 16.15-100.24 16.15 4.37 51.99 13.03 58.68 14.64.84 2.18 2.08 4.88 3.72 7.93-.43.1-.82.33-1.12.7-.15.19-14.76 18.87-27.61 43.99-17.25 33.73-23.34 62.48-18.13 85.49.01 5.44.6 9.67 1.23 12.61-8.43-5.53-27.77-22.61-32.92-65.12" style="fill:#eaeaea"/><path d="M55.05 340.12c1.34-3.83 3.43-7.57 4.48-11.53a86 86 0 0 1-.18-10.31c-.31-1.02-.7-2.02-1.17-2.97-1.2-2.39-2.81-4.53-4.32-6.72-1.48-2.15-2.84-4.41-3.57-6.94-.87-3.02-.74-6.19-.02-9.22.77-3.25 2.41-6.39 4.1-9.25 1.19-2.03 2.29-3.98 2.69-6.34.65-3.79.08-7.69-.75-11.41-.63-2.84-1.52-5.66-1.88-8.56-.34-2.71.07-5.38 1.05-7.93.67-1.76 1.53-3.44 2.46-5.08.96-1.69 1.71-3.44 2.87-5.03 1.41-1.94 3.41-3.6 4.27-5.89 1.28-3.43.9-7.26-.46-10.59-1.4-3.45-3.55-6.8-3.7-10.62-.14-3.48 1.04-7.21 2.78-10.19 2.04-3.5 4.97-6.27 8.24-8.64-9.87-2.45-19.78-4.96-26.4-6.75-3.86 8.22-22.19 50.45-16.15 100.24 3.81 31.43 15.37 48.95 24.55 58.19.2-1.51.61-3.02 1.11-4.46" style="fill:#c9c9c9"/><path d="M294.82 396.22c-4.35-.58-9.88-.81-13.95 2.55-3.17 2.62-4.88 6.83-5.23 12.9-.29 4.98-3.63 9.93-9.18 13.57-7.18 4.72-16.32 6.31-22.76 3.95-3.37-1.23-6.8-3.16-10.43-5.21-9.78-5.51-20.87-11.76-32.2-3.53-8 5.82-21.69 7.97-33.28 5.23-8.04-1.9-14.05-6-16.91-11.53-4.26-8.23-9.61-13.36-15.9-15.24-6.2-1.85-13.31-.56-21.14 3.85-8.02 4.51-18.2 5.67-26.56 3.01-6.53-2.08-11.5-6.36-14.37-12.4-6.36-13.4-13.91-24.17-17.12-28.5 6.33-3.01 23.8-12.65 36.28-32.21 3.97-6.22 8.54-14.64 13.39-23.56 13.13-24.18 29.43-54.16 43.35-58.22 11.98 6.72 27.11 11.79 45.55 11.79 3.27 0 6.64-.16 10.12-.5.47-.05.89-.26 1.2-.57 5.07 1.14 9.64 1.6 13.71 1.6 12.66 0 20.43-4.41 23.26-6.38 12.09 7.11 24.67 5.75 34.56 2.37-5.9 7.85-19 27.76-15.15 45.45.84 3.84 1.58 7.1 2.22 9.9 2.9 12.72 3.59 15.75 1.61 23.01-1.7 6.25-.6 16.48 4.82 23.97.1.14.2.27.31.4-5.35-.42-14.9-1.88-26.53-6.74-16.64-6.96-41.05-22.53-62.83-57.17a1.996 1.996 0 0 0-2.76-.63c-.94.59-1.22 1.82-.63 2.76 22.42 35.65 47.67 51.67 64.91 58.83 15.69 6.52 27.59 7.12 31.43 7.12h.51c3.15 2.41 6.88 3.77 11.02 3.99q1.14.06 2.25.06c10.2 0 19.41-3.67 24.4-9.84a19 19 0 0 0 2.88-4.9c1.97 2.72 5.06 5.92 9.21 7.13l-10.57 33.77c-3.62.21-13.66.69-19.49-.08" style="fill:#5e5e5e"/><path d="M358.6 268.23c1.49.7 3.18 1.31 5.08 1.8l-46.24 166.04c-2.43-1.81-5.42-2.9-8.68-2.9-.62 0-1.22.05-1.82.13z" style="fill:#c9c9c9"/><path d="M308.75 458.24c-5.81 0-10.54-4.73-10.54-10.54s4.73-10.54 10.54-10.54 10.54 4.73 10.54 10.54-4.73 10.54-10.54 10.54M354.26 368.75c-1.31 3.97-6.69 14.07-10.95 18.5-3.46 3.59-7.33 4.59-9.48 4.87l7.2-25.86c3.15.75 9.53 2.19 13.23 2.49M368.34 282.16l-5.22 4.76 4.49-16.12c.59.08 1.18.16 1.8.22l-.1 10.66c-.35.07-.69.22-.97.48M387.43 469.1c0 5.81-4.73 10.54-10.54 10.54s-10.54-4.73-10.54-10.54 4.73-10.54 10.54-10.54 10.54 4.73 10.54 10.54" style="fill:#5e5e5e"/><path d="M380.99 455.17c-1.3-.38-2.68-.6-4.1-.6-1.82 0-3.56.35-5.17.97l1.69-184.3c.25 0 .51.02.75.02 2.15 0 4.12-.16 5.94-.43z" style="fill:#c9c9c9"/><path d="M452.01 456.57c0 5.81-4.73 10.54-10.54 10.54s-10.54-4.73-10.54-10.54 4.73-10.54 10.54-10.54 10.54 4.73 10.54 10.54" style="fill:#5e5e5e"/><path d="M443.46 442.18c-.65-.09-1.31-.15-1.98-.15-2.4 0-4.66.59-6.66 1.63L389.8 267.62c2.34-1.33 4.22-2.91 5.73-4.57 5.28 19.75 41.86 156.25 47.93 179.13" style="fill:#c9c9c9"/><path d="M386.73 264.76c-.08.03-.16.07-.24.11-3.62 1.69-8.43 2.68-14.95 2.31-15.8-.9-19.49-9.42-20.35-13.39 10.81-.03 29.23-.15 45.81-.53-1.61 3.69-4.24 8.58-10.27 11.5" style="fill:#4db1ef"/><path d="M463.36 187.28c6.93 0 12.79 10.71 12.79 23.39s-5.85 23.39-12.79 23.39-12.79-10.71-12.79-23.39 5.86-23.39 12.79-23.39" style="fill:#88d5fc"/><path d="M452.11 231.17c-4.94.89-14.93 2.14-24.15-.1-8.62-15.1-.91-31.14 1.17-34.94 3.44-.22 7.46-.31 11.65-.27h.06c2.72.03 5.5.11 8.24.24-1.59 4.2-2.5 9.18-2.5 14.57-.01 8.24 2.11 15.52 5.53 20.5" style="fill:#4db1ef"/><path d="M422.62 229.3c-.69-.3-1.37-.62-2.04-.97-3.96-2.11-6.34-5.46-7.09-9.93-1.32-7.9 2.85-17.48 5.37-20.19.66-.71 2.67-1.25 5.53-1.64-2.88 6.05-7.5 19.2-1.77 32.73" style="fill:#88d5fc"/><path d="M439.16 191.82c-9.47-.05-20.39.61-23.23 3.67-3.14 3.38-7.96 14.15-6.38 23.57.95 5.68 4.12 10.11 9.15 12.8 5.4 2.88 11.55 4.07 17.28 4.4-.09 3.15-.85 9.57-5.4 11.09-2.43.81-13.79 1.39-28.51 1.78v-70.44c14.86.45 27.21 1.18 30.93 2.11 6.38 1.58 6.49 7.99 6.16 11.02M407.57 155.65c-1.65.15-3.07.95-4.11 2.32-3.09 4.06-2.35 12.77-1.82 16.69l-2.96-.09c-.66-7.5-.74-18.08 1.05-20.6 1.16-1.48 9.47-2.33 19.96-2.26.15.02.31.02.46 0 2.6.02 5.32.11 8.1.25v3.7c-.08-.01-.15-.03-.23-.04-.54-.01-13.32-.62-20.45.03M432.25 159.09v-9c0-4.66 3.79-8.45 8.45-8.45h7.08c-2.69 4.52-5.6 13.33.66 25.89h-7.74c-4.66 0-8.45-3.79-8.45-8.44" style="fill:#88d5fc"/><path d="M483.86 159.09c0 4.66-3.79 8.45-8.45 8.45h-22.46c-8.44-15.11-2.24-23.76-.33-25.89h22.79c4.66 0 8.45 3.79 8.45 8.45z" style="fill:#4db1ef"/><path d="M213.92 146.02c-21.65 3.61-30.07 31.78-30.81 34.4-3.82 8.62-2.63 19.35 3.1 28.04 4.95 7.51 12.29 11.95 19.69 11.95h.35c19.04-.36 32.86-13 37.91-34.68 3.09-13.27.84-25.17-6.18-32.65-5.79-6.17-14.34-8.68-24.06-7.06" style="fill:#2d2d2d"/><path d="M240.27 184.83c-4.6 19.75-17.03 31.27-34.09 31.59-6.1.1-12.35-3.68-16.62-10.15-5.02-7.61-6.07-16.94-2.73-24.34.04-.1.08-.19.11-.3.08-.28 7.96-28.38 27.65-31.66 1.76-.29 3.45-.44 5.08-.44 6.24 0 11.51 2.13 15.41 6.29 6.07 6.49 7.97 17.06 5.19 29.01" style="fill:#383838"/><path d="M312.66 194.98c2.43-20.48-8.04-44.02-32.74-49.39-11.12-2.41-17.98 1.63-21.78 5.45-8.18 8.23-9.55 22.19-7.28 32.38 3.92 17.6 18.99 28.15 20.08 28.89 4.72 3.5 10.54 5.32 16.35 5.32 3.61 0 7.22-.7 10.55-2.14 8.3-3.57 13.7-11.05 14.82-20.51" style="fill:#2d2d2d"/><path d="M273.3 209.07a.2.2 0 0 0-.08-.05c-.15-.1-14.82-10.18-18.45-26.47-2.03-9.13-.9-21.54 6.21-28.69 3.31-3.33 7.49-5.01 12.46-5.01 1.78 0 3.66.21 5.63.64 22.37 4.86 31.83 26.32 29.62 45.01-.96 8.13-5.38 14.27-12.42 17.31-7.42 3.2-16.44 2.12-22.97-2.74" style="fill:#383838"/><path d="M255.69 212.86c-2.47.1-3.49 1.42-3.88 2.2-1.52 3.03 1.39 7.68 2.31 9.04l.12.15c.31.37 3.11 3.61 6.42 3.64h.06c1.49 0 2.84-.64 3.9-1.86 1.62-1.85 1.85-4.52.6-7.12-1.5-3.14-5.25-6.21-9.53-6.05" style="fill:#2d2d2d"/><path d="M261.6 223.39c-.38.44-.7.5-.9.49-1.12-.01-2.69-1.4-3.34-2.15-1.19-1.77-2.14-4.06-2-4.82.08-.02.23-.06.49-.07 2.53-.09 4.85 1.87 5.76 3.78.31.68.74 1.92-.01 2.77" style="fill:#383838"/><path d="M240.5 212.92c-5.34-1.49-8.83 5.78-9.21 6.62-.06.13-.11.27-.14.41-.54 2.51.15 4.75 1.89 6.15 1.08.87 2.44 1.31 3.94 1.31 1.21 0 2.51-.29 3.81-.87 2.81-1.26 4.46-4.22 4.21-7.54-.23-3-1.99-5.38-4.5-6.08" style="fill:#2d2d2d"/><path d="M239.14 222.89c-1.76.79-3.01.57-3.59.1-.63-.51-.62-1.4-.53-2 .87-1.78 2.92-4.62 4.4-4.22 1.05.29 1.51 1.54 1.58 2.52.1 1.23-.33 2.91-1.86 3.6" style="fill:#383838"/><path d="M464.8 226.5c4.9 0 8.59-6.8 8.59-15.82s-3.69-15.82-8.59-15.82-8.59 6.8-8.59 15.82 3.7 15.82 8.59 15.82" style="fill:#2d2d2d"/><path d="M464.8 198.85c1.87 0 4.59 4.6 4.59 11.82s-2.72 11.82-4.59 11.82-4.59-4.61-4.59-11.82 2.72-11.82 4.59-11.82" style="fill:#383838"/><path d="M382.09 208.68h-37.34c-1.1 0-2 .9-2 2v23.67c0 1.1.9 2 2 2h37.34c1.1 0 2-.9 2-2v-23.67c0-1.11-.89-2-2-2" style="fill:#2d2d2d"/><path d="M346.75 212.68h33.34v19.67h-33.34z" style="fill:#88d5fc"/><path d="M349.48 203.3c4.72 0 8.56-3.84 8.56-8.56s-3.84-8.56-8.56-8.56-8.56 3.84-8.56 8.56 3.84 8.56 8.56 8.56" style="fill:#2d2d2d"/><path d="M349.48 190.18c2.52 0 4.56 2.05 4.56 4.56s-2.05 4.56-4.56 4.56-4.56-2.05-4.56-4.56 2.05-4.56 4.56-4.56" style="fill:#88d5fc"/><path d="M378.06 186.18c-4.72 0-8.56 3.84-8.56 8.56s3.84 8.56 8.56 8.56 8.56-3.84 8.56-8.56-3.84-8.56-8.56-8.56" style="fill:#2d2d2d"/><path d="M378.06 199.3c-2.52 0-4.56-2.05-4.56-4.56s2.05-4.56 4.56-4.56 4.56 2.05 4.56 4.56-2.04 4.56-4.56 4.56" style="fill:#88d5fc"/></g><path id="bening_00000149353722262742212670000010495626268516099243_" d="M52.25 176.39c-3.87 0-3.86-6 0-6 3.87 0 3.86 6 0 6m41.35 4.49c-7.39-1.61-14.78-3.22-22.18-4.84-3.76-.82-5.37 4.96-1.59 5.79 7.39 1.61 14.78 3.22 22.18 4.84 3.75.82 5.36-4.97 1.59-5.79m335.58 23.37v9.64c0 3.86 6 3.87 6 0v-9.64c0-3.86-6-3.87-6 0m3.96 16.28c-3.86 0-3.87 6 0 6 3.86 0 3.87-6 0-6m-76.18-.96h-1.93c-1.57 0-3.07 1.38-3 3 .07 1.63 1.32 3 3 3h1.93c1.57 0 3.07-1.38 3-3-.07-1.63-1.31-3-3-3m15.43-.97c-3.86 0-3.87 6 0 6 3.86 0 3.87-6 0-6m-66.53 224.68c-3.86 0-3.87 6 0 6 3.86 0 3.86-6 0-6m66.53 17.36c-3.86 0-3.87 6 0 6 3.86 0 3.87-6 0-6m65.57-7.71c-3.86 0-3.87 6 0 6 3.86 0 3.87-6 0-6m-54-312.43h-12.54c-3.86 0-3.87 6 0 6h12.54c3.86 0 3.87-6 0-6m21.22 0c-3.86 0-3.87 6 0 6 3.86 0 3.87-6 0-6" style="fill:#fff"/><path id="baju_bayangan_bening_00000006669470328411747780000012641706423316498359_" d="M96.39 97.21c-1.29 9.43 18.86 7.29 19.71 26.57.86 19.29-18 26.14-7.71 33.57s13.29 13.14 13.29 36.51 39.43 49.49 31.86 45.01c-7.57-4.49-39.63-27.79-39.14-48.69s-7.71-15.39-18.43-26.23c-10.71-10.83.86-15.31 9.74-33.06s-26.88-28.01-26.88-28.01 17.14-38.23 79.71-57.95 95.34 2.57 95.34 2.57C152.92 32.07 97.68 87.78 96.39 97.21m173.57-27.87s53.15 56.87 60.86 88.02c.01-.01-18.43-67.47-60.86-88.02M184.9 272.96s5.19 26.64 37.07 56.11 36.73 18.43 36.73 18.43-49.85-33.94-73.8-74.54m29.34 13.96s21.88 21.07 35.65 13.86m76.12-1.71c1.81-1.71 19.59-4.78 18.91-20.21m-124.67 82.11s6.82 50.41 20.77 56.83c13.94 6.41 24.35-16.49 24.35-16.49s-7.72 13.89-22.35 4.9-22.77-45.24-22.77-45.24m-24.86-20.4s5.5 53.64 3.18 65.21 6.9.84 14.63 3.43-3.18-8.57-8.9-6m-48.76-73.71s0 68.57 3.43 79.29c3.43 10.71 21-3.86 21-3.86s-11.02 7.22-17.14-5.57m-23.58-90.01s-31.11 85.73-26.49 84.86c4.63-.86 18.77-8.64 24.77-2.97s-5.44-11.38-15-6.89m5.65-103.71s-28.31 63.16-43.33 72.72-18.45 12.77-18.45 12.77 6.9 26.37 18.45 30.66-13-19.14-7.68-30.52c5.32-11.4 39.51-41.92 51.01-85.63" style="fill:#8e8e8e"/><path id="bening_dahi_00000181773613743096305970000012522479134733203102_" d="M221.96 119.19c0 6.46-5.24 11.7-11.7 11.7s-11.7-5.24-11.7-11.7 5.24-11.7 11.7-11.7c6.47 0 11.7 5.24 11.7 11.7m4.72-14.26s8.59 8.14 4.29 21.43c0 0 39.57-17.84 60.87-5.14 0-.01-17.05-25.64-65.16-16.29" style="fill:#d3d3d3"/><path id="mata_00000152979270661398421900000012390131827045276607_" d="M221.96 181.07c-10.31 0-10.3-16 0-16 10.32 0 10.3 16 0 16m58.5-21.79c-10.3 0-10.31 16 0 16 10.3 0 10.32-16 0-16" style="fill:#fff"/><path id="mata_bening_00000033339574260951651530000010768775932672020392_" d="M192.49 188.18c-1.25 21.82 9.86 25.33 9.86 25.33-27.32-8.42-13.5-52.33 7.39-58.92s25.23 7.39 25.23 7.39c-15.01-15.28-41.22 4.38-42.48 26.2m86.69-35.36s-16.21-5.95-20.5 14.71 17.63 53.94 41.71 38.32c0 0-21.44 5-33.84-15.68s3.95-39.27 12.63-37.35" style="fill:#8e8e8e"/><path id="bayangan_baju_item_00000110452921650572265860000014004666452367273643_" d="M90.14 406.5s32.83-68 45.26-107.43c0 0-20.57 82.71-37.71 112.29m53.13 6.44c-1.6-1.9 0-75.44 0-75.44l-8.45 63.29m47.97 19.66c6.09-33.61 0-80.73 0-80.73 2.84 31.04-7.46 84.04-7.46 84.04m53.68 1.64c-8.55-5.52-20.17-57.91-20.17-57.91l5.53 48.1m59.53-19.14c-1.37-13.04-18.08-33.18-18.08-33.18 10.12 19.34 11.82 46.25 11.82 46.25" style="fill:#2d2d2d"/><g id="tambahan_00000036934740944673778200000009343047807557915033_"><path d="M478.14 170.16c-.09 0-.18-.01-.26-.04-20.96-5.7-29.27-30.68-29.62-31.74-.17-.52.12-1.09.64-1.26s1.09.12 1.26.64c.08.25 8.33 25.01 28.24 30.42.53.15.85.69.7 1.23a.98.98 0 0 1-.96.75M485.86 160.09c-.07 0-.14-.01-.21-.02-17.6-3.77-23.19-19.95-23.24-20.11a1 1 0 0 1 .63-1.26c.53-.17 1.09.11 1.27.63.05.15 5.3 15.26 21.76 18.79.54.12.88.65.77 1.19-.11.45-.52.78-.98.78" style="fill:#2d2d2d"/><path d="M446.81 156.8c-.37 0-.72-.2-.9-.55a.993.993 0 0 1 .45-1.34c.14-.07 14.47-7.31 22.24-17.44.34-.44.96-.52 1.4-.19.44.34.52.96.19 1.4-8.05 10.5-22.33 17.71-22.93 18.01-.15.08-.3.11-.45.11M449.21 167.76c-.36 0-.71-.19-.88-.53a.996.996 0 0 1 .42-1.35c.24-.13 24.38-13.03 29.89-25.78.22-.51.81-.74 1.31-.52.51.22.74.81.52 1.31-5.78 13.39-29.77 26.21-30.79 26.75-.15.08-.31.12-.47.12M460.21 170c-.4 0-.79-.25-.94-.65-.19-.52.07-1.09.58-1.29.2-.07 19.64-7.51 25.08-19.62a1 1 0 0 1 1.82.82c-5.78 12.87-25.37 20.36-26.2 20.67-.1.05-.22.07-.34.07" style="fill:#2d2d2d"/></g><g id="outline_00000085943254930041565500000005057860163736384955_"><path d="M319.36 238.07c-.71 0-1.41-.38-1.77-1.06-.52-.97-.15-2.19.82-2.71.2-.11 5.03-2.67 11.53-4.94 3.61-1.26 5.81-3.45 5.86-4.83.04-1.09-1.32-2.3-3.74-3.34-7.66-3.28-16.38 4.98-16.47 5.07-.79.77-2.06.74-2.83-.05s-.75-2.06.05-2.82c.43-.42 10.71-10.2 20.82-5.86 5.21 2.23 6.23 5.12 6.16 7.15-.14 4.09-4.68 7.12-8.53 8.47-6.19 2.17-10.92 4.67-10.97 4.7-.29.14-.61.22-.93.22" style="fill:#2d2d2d"/><path d="M323.53 249.64c-1.05 0-1.93-.82-1.99-1.88-.07-1.1.78-2.05 1.88-2.11.1-.01 10.02-.69 14.21-6.84 1.22-1.79.86-2.74.74-3.06-.72-1.9-4.13-3.31-5.67-3.7a2.003 2.003 0 0 1-1.45-2.43 2.01 2.01 0 0 1 2.43-1.45c.69.17 6.79 1.83 8.43 6.16.56 1.47.8 3.82-1.18 6.73-5.31 7.79-16.8 8.56-17.29 8.58z" style="fill:#2d2d2d"/><path d="M327.39 262.18a2.001 2.001 0 0 1-.1-4c.05 0 5.91-.4 11.96-5.34 1.76-1.43 1.69-2.51 1.66-2.86-.14-2.17-3.13-4.49-4.16-5.14a1.997 1.997 0 0 1-.65-2.75c.58-.94 1.81-1.23 2.75-.65.59.36 5.75 3.66 6.05 8.27.11 1.59-.35 3.97-3.13 6.23-7.12 5.81-14 6.22-14.29 6.23-.02 0-.06.01-.09.01" style="fill:#2d2d2d"/><path d="M317.69 276.95c-7.11 0-13.96-3.1-19.63-12.18-6.13-9.81-8.16-28.46-.75-41.49 3.47-6.1 10.4-13.31 23.91-13 1.1.02 1.98.94 1.96 2.04s-.96 1.99-2.04 1.96c-9.13-.21-16.14 3.6-20.34 10.98-6.47 11.38-4.88 28.52.67 37.39 8.37 13.4 19.2 11.96 32.88 5.67 3.39-1.56 5.42-3.53 6.04-5.88.92-3.46-1.45-6.85-1.47-6.89-.64-.9-.43-2.15.46-2.79s2.14-.45 2.78.45c.14.2 3.5 4.91 2.11 10.22-.93 3.57-3.71 6.44-8.25 8.53-5.95 2.72-12.24 4.99-18.33 4.99M463.36 238.07c-9.41 0-16.79-12.03-16.79-27.39s7.37-27.39 16.79-27.39c9.41 0 16.79 12.03 16.79 27.39-.01 15.36-7.38 27.39-16.79 27.39m0-50.79c-6.93 0-12.79 10.71-12.79 23.39s5.86 23.39 12.79 23.39 12.79-10.71 12.79-23.39-5.86-23.39-12.79-23.39" style="fill:#2d2d2d"/><path d="M464.8 226.5c-4.9 0-8.59-6.8-8.59-15.82s3.69-15.82 8.59-15.82 8.59 6.8 8.59 15.82-3.69 15.82-8.59 15.82m0-27.65c-1.87 0-4.59 4.6-4.59 11.82s2.72 11.82 4.59 11.82 4.59-4.6 4.59-11.82-2.72-11.82-4.59-11.82M439.5 236.36c-6.67 0-14.29-1.02-20.8-4.5-5.04-2.69-8.2-7.12-9.15-12.8-1.58-9.42 3.24-20.19 6.38-23.57 4.48-4.82 28.9-3.69 36.28-3.22 1.1.07 1.94 1.02 1.87 2.12a2.007 2.007 0 0 1-2.12 1.87c-14.22-.89-30.91-.4-33.09 1.95-2.52 2.71-6.69 12.29-5.37 20.19.75 4.48 3.14 7.82 7.09 9.93 13.94 7.44 34.45 2.23 34.66 2.18 1.07-.28 2.16.36 2.44 1.43s-.36 2.16-1.43 2.44c-.53.14-7.78 1.98-16.76 1.98" style="fill:#2d2d2d"/><path d="M426.64 234.8c-.68 0-1.34-.34-1.71-.96-11.83-19.53.76-39.84 1.3-40.7.59-.93 1.83-1.21 2.76-.62s1.21 1.83.62 2.76c-.14.22-11.78 19.12-1.26 36.49.57.94.27 2.17-.67 2.75-.33.19-.69.28-1.04.28" style="fill:#2d2d2d"/><path d="M323.53 219.1c-.96 0-1.81-.69-1.97-1.67-1.1-6.63-2.04-38.65 9.95-41.8 9.74-2.56 91.13-1.55 102.46 1.28 9.67 2.41 10 12.44 8.83 17.41a2.013 2.013 0 0 1-2.41 1.49 2.003 2.003 0 0 1-1.49-2.4c.1-.45 2.34-10.56-5.9-12.61-10.62-2.65-91.37-3.69-100.47-1.29-7.56 1.99-8.44 28.81-7.03 37.27.18 1.09-.55 2.12-1.64 2.3-.11.02-.22.02-.33.02M342.86 253.8h-.28c-1.1 0-2-.9-2-2s.9-2 2-2h.45c32.41 0 82.15-.65 87.55-2.45 6.13-2.04 5.4-12.75 5.39-12.85a2.01 2.01 0 0 1 1.84-2.15c1.1-.08 2.06.74 2.15 1.84.04.57.98 13.93-8.11 16.96-7.72 2.57-79.46 2.65-88.99 2.65" style="fill:#2d2d2d"/><path d="M382.09 236.34h-37.34c-1.1 0-2-.9-2-2v-23.67c0-1.1.9-2 2-2h37.34c1.1 0 2 .9 2 2v23.67c0 1.11-.89 2-2 2m-35.34-4h33.34v-19.67h-33.34zM349.49 203.3c-4.72 0-8.57-3.84-8.57-8.56s3.84-8.56 8.57-8.56 8.56 3.84 8.56 8.56-3.84 8.56-8.56 8.56m0-13.12c-2.52 0-4.57 2.05-4.57 4.56s2.05 4.56 4.57 4.56 4.56-2.05 4.56-4.56-2.05-4.56-4.56-4.56M378.06 203.3c-4.72 0-8.56-3.84-8.56-8.56s3.84-8.56 8.56-8.56 8.56 3.84 8.56 8.56-3.84 8.56-8.56 8.56m0-13.12c-2.52 0-4.56 2.05-4.56 4.56s2.05 4.56 4.56 4.56 4.56-2.05 4.56-4.56-2.04-4.56-4.56-4.56M475.41 171.53H440.7c-6.86 0-12.45-5.58-12.45-12.45v-9c0-6.86 5.58-12.45 12.45-12.45h34.71c6.86 0 12.45 5.58 12.45 12.45v9c0 6.87-5.59 12.45-12.45 12.45m-34.71-29.89c-4.66 0-8.45 3.79-8.45 8.45v9c0 4.66 3.79 8.45 8.45 8.45h34.71c4.66 0 8.45-3.79 8.45-8.45v-9c0-4.66-3.79-8.45-8.45-8.45z" style="fill:#2d2d2d"/><path d="M451.79 171.53c-.68 0-1.35-.35-1.72-.98-12.27-20.78.27-32.29.39-32.4.83-.73 2.09-.66 2.82.17.73.82.66 2.08-.16 2.82-.44.4-10.13 9.57.39 27.39.56.95.25 2.18-.71 2.74-.32.17-.67.26-1.01.26M396.82 178.17c-1.01 0-1.88-.77-1.99-1.8-.33-3.27-1.83-19.85 1.65-24.71 3.48-4.87 24.86-4.12 33.89-3.57 1.1.07 1.94 1.02 1.87 2.12s-1 1.96-2.12 1.87c-14.95-.91-28.87-.04-30.39 1.9-1.91 2.67-1.69 14.46-.92 21.98.11 1.1-.69 2.08-1.79 2.19-.06.01-.13.02-.2.02" style="fill:#2d2d2d"/><path d="M403.89 178.17c-.95 0-1.79-.68-1.97-1.65-.25-1.37-2.29-13.53 1.53-18.55 1.04-1.37 2.47-2.17 4.11-2.32 7.13-.65 19.91-.03 20.45-.01 1.1.05 1.95.99 1.9 2.1-.05 1.1-1.01 1.94-2.1 1.9-.13-.01-13.04-.63-19.89-.01-.53.05-.92.28-1.29.76-2.09 2.74-1.58 10.91-.78 15.42a2 2 0 0 1-1.62 2.32c-.1.03-.22.04-.34.04" style="fill:#2d2d2d"/><path d="M340.51 178.17c-1.01 0-1.88-.76-1.99-1.79-.01-.1-1.04-10-1.03-19.88.02-14.72 2.25-21.83 7.02-22.38 4.58-.53 25.31-.89 44.17-.54 39.15.73 40.35 3.58 41.07 5.28 2.82 6.69-7.71 12.08-8.92 12.68-.99.49-2.19.08-2.67-.91-.49-.99-.08-2.19.91-2.68 2.55-1.26 7.71-4.76 7.08-7.28-6.03-3.74-70.63-3.8-81.18-2.58-1.19.14-3.46 4.16-3.48 18.38-.02 9.68 1 19.39 1.01 19.48a2 2 0 0 1-1.78 2.2c-.07.01-.14.02-.21.02" style="fill:#2d2d2d"/><path d="M353.43 176.68c-1.08 0-1.95-.85-2-1.91-.05-.3-.31-1.26-.54-2.11-1.75-6.4-5.01-18.32 1.8-21.04 6.66-2.67 39.93-.4 43.7-.14 1.1.08 1.93 1.03 1.85 2.14a1.984 1.984 0 0 1-2.14 1.85c-14.45-1.02-37.54-1.9-41.94-.14-2.32.93-2.12 6.4.58 16.28.51 1.85.68 2.52.68 3.08.01 1.09-.89 1.99-1.99 1.99m-2-2v.06z" style="fill:#2d2d2d"/><path d="M357.61 154.32c-1.1 0-2-.9-2-2v-14.29c0-1.1.9-2 2-2s2 .9 2 2v14.29c0 1.1-.9 2-2 2M374.16 271.25c-.92 0-1.86-.03-2.84-.08-24.11-1.38-24.39-19.19-24.39-19.37 0-1.1.9-2 2-2s2 .89 2 1.99c.01.62.42 14.23 20.61 15.38 19.19 1.1 23.67-9.61 26.08-15.36.16-.38.31-.74.45-1.06v-74.09c0-1.1.9-2 2-2s2 .9 2 2v74.52c0 .29-.06.57-.18.83-.18.39-.37.84-.58 1.35-2.28 5.45-7.49 17.89-27.15 17.89M376.89 483.64c-8.01 0-14.54-6.52-14.54-14.54s6.52-14.54 14.54-14.54 14.54 6.52 14.54 14.54-6.52 14.54-14.54 14.54m0-25.07c-5.81 0-10.54 4.73-10.54 10.54s4.73 10.54 10.54 10.54 10.54-4.73 10.54-10.54-4.73-10.54-10.54-10.54M441.47 471.1c-8.01 0-14.54-6.52-14.54-14.54s6.52-14.54 14.54-14.54 14.54 6.52 14.54 14.54-6.52 14.54-14.54 14.54m0-25.07c-5.81 0-10.54 4.73-10.54 10.54s4.73 10.54 10.54 10.54 10.54-4.73 10.54-10.54-4.73-10.54-10.54-10.54M308.75 462.24c-8.01 0-14.54-6.52-14.54-14.54s6.52-14.54 14.54-14.54 14.54 6.52 14.54 14.54-6.52 14.54-14.54 14.54m0-25.07c-5.81 0-10.54 4.73-10.54 10.54s4.73 10.54 10.54 10.54 10.54-4.73 10.54-10.54-4.73-10.54-10.54-10.54" style="fill:#2d2d2d"/><path d="M383 458.57c-1.1 0-2-.89-2-1.99l-.91-187.31c0-1.1.89-2 1.99-2.01h.01c1.1 0 2 .89 2 1.99l.91 187.31c0 1.1-.89 2-2 2.01.01 0 0 0 0 0M369.69 460.86h-.02a2 2 0 0 1-1.98-2.02l1.74-189.6c.01-1.1.9-1.98 2-1.98h.02a2 2 0 0 1 1.98 2.02l-1.74 189.6a2.01 2.01 0 0 1-2 1.98M318.47 441.79c-.18 0-.36-.02-.54-.07a2 2 0 0 1-1.39-2.46l47.49-170.54c.3-1.06 1.4-1.68 2.46-1.39a2 2 0 0 1 1.39 2.46L320.4 440.33c-.25.88-1.05 1.46-1.93 1.46M304.25 437.17q-.3 0-.6-.09a2.004 2.004 0 0 1-1.31-2.51l53.15-169.83a1.996 1.996 0 0 1 2.51-1.31c1.05.33 1.64 1.45 1.31 2.51l-53.15 169.83a2.01 2.01 0 0 1-1.91 1.4M433.57 448.85c-.89 0-1.71-.6-1.94-1.5l-46.1-180.24c-.27-1.07.37-2.16 1.44-2.43 1.08-.28 2.16.37 2.43 1.44l46.1 180.24a1.997 1.997 0 0 1-1.93 2.49M447.59 446.47l-2.64-3 1.31 1.51-1.95.43c-.61-2.59-48.93-182.9-49.42-184.72a2 2 0 0 1 1.41-2.45 2 2 0 0 1 2.45 1.41s12.38 46.19 24.75 92.38c6.18 23.1 12.37 46.2 17 63.52 2.32 8.66 4.24 15.89 5.59 20.94.67 2.53 1.2 4.52 1.56 5.88.76 2.91.86 3.28-.06 4.1M247.95 256.4c-6.74 0-10.32-2.92-12.11-5.27-2.29 2.01-6.71 4.17-14.59 2.63-9.07-1.78-11.86-8.45-12.22-13.03-4.28-.39-14.99-1.93-26.11-7.9-13.06-7-29.05-21.63-31.1-51.6-1.86-27.17 5.29-50.19 20.68-66.57 15.26-16.24 38.31-25.06 64.9-24.92 46.22.29 73.59 21.98 81.35 64.48 6.47 35.42-4.44 59.14-4.91 60.13a1.999 1.999 0 1 1-3.62-1.7c.11-.23 10.82-23.63 4.59-57.71-7.47-40.9-32.8-60.92-77.44-61.2h-.74c-25.51 0-46.66 8.17-61.21 23.66-14.61 15.55-21.39 37.53-19.61 63.56 1.55 22.6 11.31 38.86 29 48.35 13.25 7.1 26.14 7.55 26.27 7.55.55.02 1.07.26 1.44.67s.55.96.5 1.51c-.07.9-.44 8.94 9 10.79 9.71 1.9 12.22-2.86 12.33-3.06.37-.73 1.15-1.18 1.96-1.11s1.51.6 1.75 1.38c.07.21 1.98 5.6 10.51 5.34 7.94-.25 8.33-4.32 8.35-4.79.03-.78.52-1.5 1.25-1.79.73-.3 1.56-.16 2.13.38.24.22 6 5.47 14.27 2.16 8-3.2 6.85-11.63 6.8-11.98-.16-1.05.53-2.04 1.57-2.26 3.06-.63 8.51-2.33 10.09-4.17.72-.84 1.98-.93 2.82-.21s.93 1.98.21 2.82c-2.28 2.66-7.74 4.34-10.59 5.07.06 4.46-1.8 11.39-9.42 14.44-7.23 2.89-13 .66-16.07-1.19-1.27 2.4-4.26 5.29-11.28 5.51-.25.03-.5.03-.75.03" style="fill:#2d2d2d"/><path d="M219.39 263.19c-8.27 0-18.62-1.88-31.04-7.55-20.23-9.24-35.78-26.09-42.65-46.25-7.4-21.68-4.53-46.01 8.29-70.36 28.25-53.64 73.17-74.36 86.11-71.41 9.91 2.26 53.35 23.47 73.01 61.79 18.67 36.37 18.37 49.18 18.35 49.7-.04 1.1-.98 1.96-2.08 1.92-1.1-.05-1.96-.98-1.92-2.08 0-.1.09-12.64-17.91-47.71C291.97 97 251.58 74.35 239.2 71.52c-4.18-.96-17.07 1.88-33.85 13.55-13.27 9.24-32.34 26.42-47.83 55.82-12.3 23.35-15.08 46.59-8.04 67.2 6.52 19.12 21.3 35.12 40.53 43.9 33.62 15.35 50.52 1.48 51.22.88.67-.57 1.64-.64 2.38-.17 23.21 14.78 49.42-6.4 49.68-6.62.85-.7 2.11-.58 2.82.27.7.85.58 2.11-.27 2.81-.28.23-27.82 22.55-53.18 7.63-2.84 1.99-10.61 6.4-23.27 6.4" style="fill:#2d2d2d"/><path d="M194.36 262.66c-30.44 0-51.91-13.81-64.97-26.09-16.61-15.61-25.07-33.66-26.38-39.5-.74-3.31-1.04-6.29-1.31-8.92-.68-6.76-1.06-10.48-7.2-13.26-6.24-2.81-11.16-9.22-12.26-15.94-.89-5.45.76-10.44 4.65-14.04 5.23-4.85 7.4-8.21 7.46-11.62.06-3.29-1.98-6.95-6.23-11.21-10.14-10.14-28.49-9.07-28.67-9.06-.72.05-1.41-.3-1.81-.91-.39-.61-.43-1.38-.1-2.02 6.6-12.59 32.97-55.06 95.44-72.99 31.75-9.12 58.75-11.08 82.53-6.02 25.3 5.39 47.12 18.7 66.7 40.68 39.33 44.16 37.68 73.53 37.59 74.76-.08 1.1-1.05 1.94-2.14 1.85a2 2 0 0 1-1.85-2.13c.02-.34 1.42-29.13-36.59-71.82-36.86-41.39-81.62-51.71-145.13-33.48C97.4 57.23 71.25 94.09 62.72 109c6.3.17 19.57 1.61 28.23 10.26 5.14 5.14 7.49 9.62 7.4 14.11-.11 5.71-4.27 10.34-8.74 14.48-3.68 3.41-3.89 7.57-3.42 10.46.89 5.45 4.89 10.65 9.95 12.93 8.25 3.72 8.85 9.64 9.54 16.5.26 2.52.54 5.38 1.23 8.45 2.06 9.17 30.87 68.43 97.18 61.99 1.1-.1 2.08.7 2.18 1.8s-.7 2.08-1.8 2.18c-3.47.34-6.84.5-10.11.5" style="fill:#2d2d2d"/><path d="M205.9 220.42c-7.4 0-14.73-4.45-19.69-11.95-5.74-8.69-6.92-19.42-3.1-28.04.74-2.62 9.16-30.79 30.81-34.4 9.72-1.62 18.27.89 24.06 7.06 7.02 7.48 9.27 19.38 6.18 32.65-5.05 21.68-18.87 34.32-37.91 34.68zm13.76-70.89c-1.63 0-3.32.15-5.08.44-19.69 3.28-27.57 31.38-27.65 31.66-.03.1-.06.2-.11.3-3.34 7.41-2.29 16.73 2.73 24.34 4.27 6.47 10.5 10.25 16.62 10.15 17.06-.32 29.49-11.84 34.09-31.59 2.78-11.95.89-22.52-5.2-29-3.89-4.16-9.16-6.3-15.4-6.3M287.3 217.62c-5.81 0-11.63-1.82-16.35-5.32-1.09-.74-16.16-11.29-20.08-28.89-2.27-10.19-.9-24.15 7.28-32.38 3.8-3.82 10.66-7.86 21.78-5.45 24.7 5.37 35.17 28.91 32.74 49.39-1.12 9.46-6.52 16.94-14.81 20.51-3.34 1.44-6.95 2.14-10.56 2.14m-13.86-68.77c-4.97 0-9.14 1.67-12.46 5.01-7.11 7.15-8.25 19.56-6.21 28.69 3.63 16.29 18.3 26.37 18.45 26.47.02.02.05.04.08.05 6.53 4.86 15.54 5.94 22.97 2.74 7.05-3.03 11.46-9.18 12.42-17.31 2.22-18.69-7.25-40.15-29.62-45.01-1.97-.43-3.85-.64-5.63-.64M260.71 227.88h-.06c-3.3-.04-6.11-3.27-6.42-3.64l-.12-.15c-.93-1.35-3.84-6-2.31-9.04.39-.78 1.42-2.1 3.88-2.2 4.29-.17 8.03 2.92 9.53 6.05 1.25 2.61 1.02 5.27-.6 7.12-1.06 1.22-2.41 1.86-3.9 1.86m-3.35-6.14c.65.74 2.22 2.14 3.34 2.15h.01c.23 0 .52-.06.89-.49.75-.85.32-2.1 0-2.77-.91-1.9-3.23-3.87-5.76-3.78-.25.01-.41.04-.49.07-.13.76.81 3.05 2.01 4.82M236.98 227.41c-1.49 0-2.86-.44-3.94-1.31-1.74-1.4-2.42-3.64-1.89-6.15.03-.14.08-.28.14-.41.38-.83 3.86-8.12 9.22-6.62 2.5.7 4.27 3.08 4.49 6.07.25 3.32-1.4 6.28-4.21 7.54-1.3.59-2.6.88-3.81.88m-1.96-6.42c-.1.6-.11 1.49.53 2 .58.47 1.83.69 3.59-.1 1.52-.69 1.96-2.36 1.86-3.59-.07-.98-.53-2.23-1.58-2.52-1.49-.42-3.53 2.43-4.4 4.21M288.4 370.13q-1.125 0-2.25-.06c-6.29-.33-11.63-3.29-15.44-8.56-5.41-7.48-6.52-17.72-4.82-23.97 1.98-7.26 1.29-10.28-1.61-23-.64-2.8-1.38-6.06-2.22-9.9-4.82-22.15 16.93-47.79 17.86-48.87.72-.84 1.98-.93 2.82-.21s.93 1.98.21 2.82c-.16.19-12.49 14.73-16.41 30.58a2 2 0 0 1 1.38-.45c28.62 1.63 44.66-15.08 44.82-15.24.52-.55 1.3-.76 2.02-.55 1.19.35 2.19 1.38 3.15 3.25 3.26 6.37 6.66 25.37 2.44 37.32-1.33 3.75-2.65 6.34-3.71 8.43-2.68 5.26-3.79 7.43-.5 19.71 1.94 7.25.78 13.78-3.35 18.88-4.99 6.14-14.19 9.81-24.39 9.82m-22.38-78.76c-.79 4.17-.93 8.39-.05 12.41.83 3.83 1.57 7.07 2.21 9.86 2.93 12.85 3.81 16.72 1.57 24.95-1.42 5.2-.43 14.17 4.2 20.57 3.12 4.31 7.29 6.64 12.41 6.91 9.83.52 18.77-2.66 23.33-8.3 3.34-4.12 4.21-9.28 2.59-15.33-3.54-13.21-2.31-16.46.8-22.57 1.06-2.09 2.27-4.45 3.5-7.95 3.99-11.28.22-29.92-2.38-34.53-4.46 4.05-18.9 15.21-42.24 15.21q-2.085 0-4.26-.12a1.97 1.97 0 0 1-1.68-1.11" style="fill:#2d2d2d"/><path d="M312.73 337.52c-.71 0-1.4-.38-1.76-1.06a2 2 0 0 1 .82-2.71c.21-.11 21.33-11.51 28.87-21.13.68-.87 1.94-1.02 2.81-.34s1.02 1.94.34 2.81c-8.05 10.29-29.23 21.71-30.12 22.19-.32.16-.65.24-.96.24M359.33 295.08c-.54 0-1.08-.22-1.48-.65-.74-.82-.69-2.08.13-2.83l10.36-9.44c.82-.74 2.08-.69 2.83.13.74.82.69 2.08-.13 2.83l-10.36 9.44c-.39.35-.87.52-1.35.52M274.61 366.08c-3.84 0-15.74-.6-31.43-7.12-17.24-7.16-42.49-23.18-64.91-58.83-.59-.94-.31-2.17.63-2.76s2.17-.31 2.76.63c21.79 34.64 46.19 50.21 62.83 57.17 18.01 7.54 31.06 6.89 31.19 6.89 1.12-.06 2.05.78 2.11 1.88s-.77 2.05-1.88 2.11c-.09.01-.53.03-1.3.03M327.47 362.97c-.05 0-.11 0-.17-.01-9.14-.75-14-11.45-14.2-11.9-.45-1.01 0-2.19 1.01-2.64s2.19 0 2.64 1.01c.04.09 4.11 8.98 10.87 9.54 1.1.09 1.92 1.06 1.83 2.16a1.98 1.98 0 0 1-1.98 1.84M332.33 396.22c-.24 0-.39-.01-.43-.01-1.1-.07-1.94-1.02-1.87-2.12s1.03-1.95 2.12-1.87c.25.01 6.14.25 11.16-4.96 4.27-4.42 9.64-14.53 10.95-18.5-4.14-.35-11.65-2.11-14.22-2.73a2.003 2.003 0 0 1-1.47-2.42 2.01 2.01 0 0 1 2.42-1.47c6.02 1.46 13.36 2.89 14.74 2.67 1.05-.17 2.03.31 2.52 1.23 1.92 3.66-7.95 19.73-12.05 23.99-5.59 5.78-12.13 6.19-13.87 6.19" style="fill:#2d2d2d"/><path d="M250.23 434.24c-2.82 0-5.51-.42-7.9-1.29-3.67-1.34-7.41-3.45-11.03-5.49-9.58-5.4-18.63-10.5-27.88-3.78-8.88 6.46-23.91 8.88-36.55 5.89-9.19-2.18-16.13-7-19.54-13.59-3.74-7.23-8.28-11.69-13.49-13.25-5.12-1.53-11.19-.35-18.04 3.5-8.96 5.04-20.35 6.31-29.73 3.34-7.62-2.42-13.42-7.43-16.77-14.5-7.94-16.73-18.09-29.65-18.19-29.78-.39-.5-.53-1.15-.36-1.76.16-.61.61-1.11 1.19-1.34.22-.09 22.31-9.05 36.77-31.7 3.89-6.1 8.44-14.46 13.24-23.32 14.44-26.59 30.81-56.73 46.63-60.4 1.08-.25 2.15.42 2.4 1.5s-.42 2.15-1.5 2.4c-14.06 3.27-30.67 33.84-44.02 58.41-4.84 8.92-9.42 17.34-13.39 23.56-12.48 19.56-29.95 29.2-36.28 32.21 3.21 4.33 10.75 15.1 17.12 28.5 2.87 6.04 7.84 10.33 14.37 12.4 8.36 2.66 18.54 1.5 26.56-3.01 7.83-4.41 14.95-5.7 21.14-3.85 6.29 1.88 11.64 7.01 15.9 15.24 2.86 5.53 8.87 9.63 16.91 11.53 11.59 2.74 25.28.59 33.28-5.23 11.33-8.24 22.41-1.99 32.2 3.53 3.64 2.05 7.07 3.98 10.44 5.21 6.44 2.35 15.59.76 22.76-3.95 5.54-3.64 8.89-8.59 9.18-13.57.35-6.06 2.06-10.28 5.23-12.9 4.07-3.36 9.59-3.13 13.95-2.55 7.17.95 20.72 0 20.85-.01 1.11-.08 2.06.75 2.14 1.85s-.75 2.06-1.85 2.14c-.57.04-14.1 1-21.67-.01-3.55-.47-8-.71-10.87 1.67-2.23 1.84-3.5 5.22-3.78 10.05-.37 6.35-4.27 12.27-10.97 16.68-5.61 3.69-12.34 5.67-18.45 5.67M105.71 201.1c-.15 0-.31-.02-.47-.06-2.17-.52-53.22-12.81-65.14-16.42-5.58-1.69-8.85-6-8.75-11.52.11-5.95 3.98-11.62 8.82-12.9 7.46-1.97 51.57 11.36 60.33 14.05 1.06.32 1.65 1.44 1.32 2.5a1.987 1.987 0 0 1-2.5 1.32c-19.87-6.1-53.23-15.31-58.13-14-3.1.82-5.77 4.99-5.85 9.11-.04 2.16.68 6.03 5.92 7.62 11.81 3.58 64.38 16.23 64.91 16.36 1.07.26 1.73 1.34 1.48 2.41-.22.92-1.04 1.53-1.94 1.53" style="fill:#2d2d2d"/><path d="M65.53 357.61c-.25 0-.5-.05-.73-.14-1.32-.52-32.47-13.5-39.39-70.59-6.85-56.53 17.03-103.54 17.27-104.01.51-.98 1.71-1.37 2.69-.86s1.37 1.71.86 2.69c-.23.47-23.55 46.43-16.85 101.7 5.15 42.51 24.49 59.59 32.93 65.12-1.81-8.55-3.4-28.07 9.11-56.48 16.76-38.03 55.27-63.85 55.65-64.11a1.998 1.998 0 1 1 2.21 3.33c-.38.25-37.93 25.45-54.2 62.39-16.11 36.56-7.78 57.99-7.69 58.2.3.74.13 1.59-.43 2.16-.39.4-.9.6-1.43.6" style="fill:#2d2d2d"/><path d="M63.11 340.87c-.91 0-1.73-.62-1.95-1.55-5.38-23.07.69-51.97 18.04-85.89 12.85-25.12 27.46-43.81 27.61-43.99.68-.87 1.94-1.02 2.81-.34s1.02 1.94.34 2.81c-.57.73-57.24 73.59-44.9 126.5.25 1.08-.42 2.15-1.49 2.4-.15.04-.31.06-.46.06" style="fill:#2d2d2d"/></g></g></svg>